<svg width="34" height="34" viewBox="0 0 34 34" fill="none" xmlns="http://www.w3.org/2000/svg">
<path d="M17.0009 -2.30886e-07C12.3841 -1.68187e-07 11.8047 0.0201877 9.99145 0.102709C8.18171 0.185584 6.94641 0.472104 5.86553 0.8925C4.74746 1.32671 3.79903 1.90754 2.85414 2.85281C1.90855 3.79773 1.32773 4.74619 0.892119 5.86394C0.470673 6.94521 0.183807 8.1809 0.102351 9.98998C0.0212494 11.8033 1.68172e-07 12.3831 2.30874e-07 17C2.93575e-07 21.6169 0.0205417 22.1946 0.102706 24.0079C0.185933 25.8177 0.472445 27.053 0.892474 28.1339C1.32702 29.252 1.90784 30.2005 2.85308 31.1454C3.79761 32.091 4.74604 32.6733 5.86341 33.1075C6.945 33.5279 8.18065 33.8144 9.99003 33.8973C11.8033 33.9798 12.3824 34 16.9988 34C21.6159 34 22.1935 33.9798 24.0068 33.8973C25.8166 33.8144 27.0533 33.5279 28.1349 33.1075C29.2526 32.6733 30.1996 32.091 31.1441 31.1454C32.0897 30.2005 32.6705 29.252 33.1061 28.1343C33.524 27.053 33.8109 25.8173 33.8959 24.0082C33.9774 22.1949 33.9986 21.6169 33.9986 17C33.9986 12.3831 33.9774 11.8037 33.8959 9.99033C33.8109 8.18054 33.524 6.94521 33.1061 5.86429C32.6705 4.74619 32.0897 3.79773 31.1441 2.85281C30.1985 1.90719 29.2529 1.32635 28.1338 0.8925C27.0501 0.472104 25.8141 0.185583 24.0043 0.102708C22.1911 0.0201875 21.6138 -2.93533e-07 16.9956 -2.30814e-07L17.0009 -2.30886e-07ZM15.4759 3.06354C15.9285 3.06283 16.4335 3.06354 17.0009 3.06354C21.5398 3.06354 22.0777 3.07983 23.8701 3.16129C25.5276 3.23708 26.4271 3.51404 27.0263 3.74673C27.8197 4.05485 28.3852 4.42319 28.9799 5.01819C29.5749 5.61319 29.9432 6.17985 30.252 6.97319C30.4847 7.57173 30.762 8.47131 30.8374 10.1288C30.9189 11.9209 30.9366 12.4592 30.9366 16.9961C30.9366 21.533 30.9189 22.0713 30.8374 23.8634C30.7616 25.5209 30.4847 26.4205 30.252 27.019C29.9439 27.8124 29.5749 28.3772 28.9799 28.9719C28.3849 29.5669 27.82 29.9352 27.0263 30.2434C26.4278 30.4771 25.5276 30.7534 23.8701 30.8291C22.0781 30.9106 21.5398 30.9283 17.0009 30.9283C12.4617 30.9283 11.9237 30.9106 10.1317 30.8291C8.47424 30.7526 7.57469 30.4757 6.9751 30.243C6.18179 29.9349 5.61514 29.5665 5.02016 28.9715C4.42518 28.3765 4.05686 27.8113 3.74803 27.0176C3.51535 26.4191 3.23805 25.5195 3.16261 23.862C3.08116 22.0699 3.06487 21.5316 3.06487 16.9919C3.06487 12.4521 3.08116 11.9166 3.16261 10.1246C3.2384 8.46706 3.51535 7.56748 3.74803 6.96823C4.05615 6.1749 4.42518 5.60823 5.02016 5.01323C5.61514 4.41823 6.18179 4.0499 6.9751 3.74106C7.57433 3.50731 8.47424 3.23106 10.1317 3.15492C11.6999 3.08408 12.3076 3.06283 15.4759 3.05929L15.4759 3.06354ZM26.0751 5.88625C24.9489 5.88625 24.0351 6.79894 24.0351 7.92554C24.0351 9.05179 24.9489 9.96554 26.0751 9.96554C27.2013 9.96554 28.115 9.05179 28.115 7.92554C28.115 6.79929 27.2013 5.88554 26.0751 5.88554L26.0751 5.88625ZM17.0009 8.26979C12.1798 8.26979 8.27096 12.1787 8.27096 17C8.27096 21.8213 12.1798 25.7284 17.0009 25.7284C21.822 25.7284 25.7294 21.8213 25.7294 17C25.7294 12.1787 21.8217 8.26979 17.0005 8.26979L17.0009 8.26979ZM17.0009 11.3333C20.1302 11.3333 22.6674 13.8702 22.6674 17C22.6674 20.1294 20.1302 22.6667 17.0009 22.6667C13.8712 22.6667 11.3344 20.1294 11.3344 17C11.3344 13.8702 13.8712 11.3333 17.0009 11.3333Z" fill="white"/>
</svg>
